<svg width="256" height="40" viewBox="0 0 256 40" fill="none" xmlns="http://www.w3.org/2000/svg">
<path fill-rule="evenodd" clip-rule="evenodd" d="M20.4832 5.5267C21.2465 4.20464 23.1547 4.20465 23.918 5.52671L39.5067 32.5272C40.27 33.8492 39.3159 35.5018 37.7893 35.5018H6.6119C5.08531 35.5018 4.13121 33.8492 4.8945 32.5272L20.4832 5.5267ZM22.2006 7.43351L7.40454 33.0611H36.9966L22.2006 7.43351Z" fill="#C967CC"/>
<path fill-rule="evenodd" clip-rule="evenodd" d="M38.0535 34.8916L27.7794 17.0963L29.8932 15.876L40.1672 33.6712L38.0535 34.8916Z" fill="#FEBF56"/>
<path fill-rule="evenodd" clip-rule="evenodd" d="M30.2513 10.8627C31.0122 9.54448 32.9146 9.54448 33.6756 10.8627L46.1874 32.5358C46.9484 33.8539 45.9972 35.5016 44.4753 35.5016H19.4517C17.9298 35.5016 16.9786 33.8539 17.7395 32.5358L30.2513 10.8627ZM31.9634 12.7638L20.2419 33.0681H43.6851L31.9634 12.7638Z" fill="#E46047"/>
<path fill-rule="evenodd" clip-rule="evenodd" d="M17.4718 33.5002C17.4727 33.1703 17.5573 32.832 17.7414 32.5128L27.0836 16.3165C27.8076 15.3446 29.2159 15.26 30.0591 16.0625L20.2609 33.0492H39.8452C40.1236 34.2512 39.224 35.4999 37.8925 35.5015C37.8917 35.5015 37.8909 35.5015 37.89 35.5015H19.4776C19.4768 35.5015 19.476 35.5015 19.4752 35.5015C18.3102 35.5001 17.4759 34.5442 17.4718 33.5002Z" fill="#689FF1"/>
<path d="M59.82 30V16.112H62.984L63.264 18.464C63.6933 17.6427 64.3093 16.9893 65.112 16.504C65.9333 16.0187 66.8947 15.776 67.996 15.776C69.7133 15.776 71.048 16.3173 72 17.4C72.952 18.4827 73.428 20.0693 73.428 22.16V30H69.844V22.496C69.844 21.3013 69.6013 20.3867 69.116 19.752C68.6307 19.1173 67.8747 18.8 66.848 18.8C65.84 18.8 65.0093 19.1547 64.356 19.864C63.7213 20.5733 63.404 21.5627 63.404 22.832V30H59.82ZM90.2392 16.112V30H87.0752L86.7952 27.648C86.3658 28.4693 85.7405 29.1227 84.9192 29.608C84.1165 30.0933 83.1645 30.336 82.0632 30.336C80.3458 30.336 79.0112 29.7947 78.0592 28.712C77.1072 27.6293 76.6312 26.0427 76.6312 23.952V16.112H80.2152V23.616C80.2152 24.8107 80.4578 25.7253 80.9432 26.36C81.4285 26.9947 82.1845 27.312 83.2112 27.312C84.2192 27.312 85.0405 26.9573 85.6752 26.248C86.3285 25.5387 86.6552 24.5493 86.6552 23.28V16.112H90.2392ZM92.5743 30L97.6143 23.056L92.5743 16.112H96.4103L99.9383 21.04L103.438 16.112H107.302L102.234 23.056L107.302 30H103.438L99.9383 25.072L96.4103 30H92.5743ZM115.774 30C114.318 30 113.151 29.6453 112.274 28.936C111.396 28.2267 110.958 26.9667 110.958 25.156V19.108H108.578V16.112H110.958L111.378 12.388H114.542V16.112H118.294V19.108H114.542V25.184C114.542 25.856 114.682 26.3227 114.962 26.584C115.26 26.8267 115.764 26.948 116.474 26.948H118.21V30H115.774ZM123.359 13.956C122.705 13.956 122.164 13.76 121.735 13.368C121.324 12.976 121.119 12.4813 121.119 11.884C121.119 11.2867 121.324 10.8013 121.735 10.428C122.164 10.036 122.705 9.84 123.359 9.84C124.012 9.84 124.544 10.036 124.955 10.428C125.384 10.8013 125.599 11.2867 125.599 11.884C125.599 12.4813 125.384 12.976 124.955 13.368C124.544 13.76 124.012 13.956 123.359 13.956ZM118.739 36.16V33.108H119.831C120.447 33.108 120.885 32.9867 121.147 32.744C121.408 32.5013 121.539 32.0907 121.539 31.512V16.112H125.123V31.512C125.123 33.192 124.693 34.3867 123.835 35.096C122.995 35.8053 121.847 36.16 120.391 36.16H118.739ZM134.603 30.336C133.371 30.336 132.288 30.14 131.355 29.748C130.422 29.3373 129.675 28.7773 129.115 28.068C128.555 27.3587 128.219 26.5373 128.107 25.604H131.719C131.831 26.1453 132.13 26.612 132.615 27.004C133.119 27.3773 133.763 27.564 134.547 27.564C135.331 27.564 135.9 27.4053 136.255 27.088C136.628 26.7707 136.815 26.4067 136.815 25.996C136.815 25.3987 136.554 24.9973 136.031 24.792C135.508 24.568 134.78 24.3533 133.847 24.148C133.25 24.0173 132.643 23.8587 132.027 23.672C131.411 23.4853 130.842 23.252 130.319 22.972C129.815 22.6733 129.404 22.3 129.087 21.852C128.77 21.3853 128.611 20.816 128.611 20.144C128.611 18.912 129.096 17.876 130.067 17.036C131.056 16.196 132.438 15.776 134.211 15.776C135.854 15.776 137.16 16.1587 138.131 16.924C139.12 17.6893 139.708 18.744 139.895 20.088H136.507C136.302 19.0613 135.527 18.548 134.183 18.548C133.511 18.548 132.988 18.6787 132.615 18.94C132.26 19.2013 132.083 19.528 132.083 19.92C132.083 20.3307 132.354 20.6573 132.895 20.9C133.436 21.1427 134.155 21.3667 135.051 21.572C136.022 21.796 136.908 22.048 137.711 22.328C138.532 22.5893 139.186 22.9907 139.671 23.532C140.156 24.0547 140.399 24.8107 140.399 25.8C140.418 26.6587 140.194 27.4333 139.727 28.124C139.26 28.8147 138.588 29.356 137.711 29.748C136.834 30.14 135.798 30.336 134.603 30.336ZM142.398 33.108L149.398 8.244H152.898L145.87 33.108H142.398Z" fill="#E2E8F0"/>
<path d="M155.359 36.16V16.112H158.551L158.943 18.1C159.391 17.484 159.979 16.9427 160.707 16.476C161.454 16.0093 162.415 15.776 163.591 15.776C164.898 15.776 166.064 16.0933 167.091 16.728C168.118 17.3627 168.93 18.2307 169.527 19.332C170.124 20.4333 170.423 21.684 170.423 23.084C170.423 24.484 170.124 25.7347 169.527 26.836C168.93 27.9187 168.118 28.7773 167.091 29.412C166.064 30.028 164.898 30.336 163.591 30.336C162.546 30.336 161.631 30.14 160.847 29.748C160.063 29.356 159.428 28.8053 158.943 28.096V36.16H155.359ZM162.835 27.2C163.974 27.2 164.916 26.8173 165.663 26.052C166.41 25.2867 166.783 24.2973 166.783 23.084C166.783 21.8707 166.41 20.872 165.663 20.088C164.916 19.304 163.974 18.912 162.835 18.912C161.678 18.912 160.726 19.304 159.979 20.088C159.251 20.8533 158.887 21.8427 158.887 23.056C158.887 24.2693 159.251 25.268 159.979 26.052C160.726 26.8173 161.678 27.2 162.835 27.2ZM173.625 30V16.112H176.817L177.153 18.716C177.657 17.82 178.338 17.1107 179.197 16.588C180.074 16.0467 181.101 15.776 182.277 15.776V19.556H181.269C180.485 19.556 179.785 19.6773 179.169 19.92C178.553 20.1627 178.067 20.5827 177.713 21.18C177.377 21.7773 177.209 22.608 177.209 23.672V30H173.625ZM186.658 13.956C186.005 13.956 185.464 13.76 185.034 13.368C184.624 12.976 184.418 12.4813 184.418 11.884C184.418 11.2867 184.624 10.8013 185.034 10.428C185.464 10.036 186.005 9.84 186.658 9.84C187.312 9.84 187.844 10.036 188.254 10.428C188.684 10.8013 188.898 11.2867 188.898 11.884C188.898 12.4813 188.684 12.976 188.254 13.368C187.844 13.76 187.312 13.956 186.658 13.956ZM184.866 30V16.112H188.45V30H184.866ZM197.931 30.336C196.699 30.336 195.616 30.14 194.683 29.748C193.75 29.3373 193.003 28.7773 192.443 28.068C191.883 27.3587 191.547 26.5373 191.435 25.604H195.047C195.159 26.1453 195.458 26.612 195.943 27.004C196.447 27.3773 197.091 27.564 197.875 27.564C198.659 27.564 199.228 27.4053 199.583 27.088C199.956 26.7707 200.143 26.4067 200.143 25.996C200.143 25.3987 199.882 24.9973 199.359 24.792C198.836 24.568 198.108 24.3533 197.175 24.148C196.578 24.0173 195.971 23.8587 195.355 23.672C194.739 23.4853 194.17 23.252 193.647 22.972C193.143 22.6733 192.732 22.3 192.415 21.852C192.098 21.3853 191.939 20.816 191.939 20.144C191.939 18.912 192.424 17.876 193.395 17.036C194.384 16.196 195.766 15.776 197.539 15.776C199.182 15.776 200.488 16.1587 201.459 16.924C202.448 17.6893 203.036 18.744 203.223 20.088H199.835C199.63 19.0613 198.855 18.548 197.511 18.548C196.839 18.548 196.316 18.6787 195.943 18.94C195.588 19.2013 195.411 19.528 195.411 19.92C195.411 20.3307 195.682 20.6573 196.223 20.9C196.764 21.1427 197.483 21.3667 198.379 21.572C199.35 21.796 200.236 22.048 201.039 22.328C201.86 22.5893 202.514 22.9907 202.999 23.532C203.484 24.0547 203.727 24.8107 203.727 25.8C203.746 26.6587 203.522 27.4333 203.055 28.124C202.588 28.8147 201.916 29.356 201.039 29.748C200.162 30.14 199.126 30.336 197.931 30.336ZM206.902 30V16.112H210.066L210.374 17.988C210.822 17.316 211.41 16.784 212.138 16.392C212.885 15.9813 213.743 15.776 214.714 15.776C216.861 15.776 218.382 16.6067 219.278 18.268C219.782 17.5027 220.454 16.896 221.294 16.448C222.153 16 223.086 15.776 224.094 15.776C225.905 15.776 227.295 16.3173 228.266 17.4C229.237 18.4827 229.722 20.0693 229.722 22.16V30H226.138V22.496C226.138 21.3013 225.905 20.3867 225.438 19.752C224.99 19.1173 224.29 18.8 223.338 18.8C222.367 18.8 221.583 19.1547 220.986 19.864C220.407 20.5733 220.118 21.5627 220.118 22.832V30H216.534V22.496C216.534 21.3013 216.301 20.3867 215.834 19.752C215.367 19.1173 214.649 18.8 213.678 18.8C212.726 18.8 211.951 19.1547 211.354 19.864C210.775 20.5733 210.486 21.5627 210.486 22.832V30H206.902ZM235.057 13.956C234.403 13.956 233.862 13.76 233.433 13.368C233.022 12.976 232.817 12.4813 232.817 11.884C232.817 11.2867 233.022 10.8013 233.433 10.428C233.862 10.036 234.403 9.84 235.057 9.84C235.71 9.84 236.242 10.036 236.653 10.428C237.082 10.8013 237.297 11.2867 237.297 11.884C237.297 12.4813 237.082 12.976 236.653 13.368C236.242 13.76 235.71 13.956 235.057 13.956ZM233.265 30V16.112H236.849V30H233.265ZM247.394 30.336C245.975 30.336 244.724 30.028 243.642 29.412C242.559 28.796 241.7 27.9373 241.066 26.836C240.45 25.7347 240.142 24.4747 240.142 23.056C240.142 21.6373 240.45 20.3773 241.066 19.276C241.7 18.1747 242.559 17.316 243.642 16.7C244.724 16.084 245.975 15.776 247.394 15.776C249.167 15.776 250.66 16.2427 251.874 17.176C253.087 18.0907 253.862 19.36 254.198 20.984H250.418C250.231 20.312 249.858 19.7893 249.298 19.416C248.756 19.024 248.112 18.828 247.366 18.828C246.376 18.828 245.536 19.2013 244.846 19.948C244.155 20.6947 243.81 21.7307 243.81 23.056C243.81 24.3813 244.155 25.4173 244.846 26.164C245.536 26.9107 246.376 27.284 247.366 27.284C248.112 27.284 248.756 27.0973 249.298 26.724C249.858 26.3507 250.231 25.8187 250.418 25.128H254.198C253.862 26.696 253.087 27.956 251.874 28.908C250.66 29.86 249.167 30.336 247.394 30.336Z" fill="#7F8CCC"/>
</svg>
