<svg width="221" height="40" viewBox="0 0 221 40" fill="none" xmlns="http://www.w3.org/2000/svg">
<g clip-path="url(#clip0)">
<path d="M47.82 30V16.112H50.984L51.264 18.464C51.6933 17.6427 52.3093 16.9893 53.112 16.504C53.9333 16.0187 54.8947 15.776 55.996 15.776C57.7133 15.776 59.048 16.3173 60 17.4C60.952 18.4827 61.428 20.0693 61.428 22.16V30H57.844V22.496C57.844 21.3013 57.6013 20.3867 57.116 19.752C56.6307 19.1173 55.8747 18.8 54.848 18.8C53.84 18.8 53.0093 19.1547 52.356 19.864C51.7213 20.5733 51.404 21.5627 51.404 22.832V30H47.82ZM78.2392 16.112V30H75.0752L74.7952 27.648C74.3658 28.4693 73.7405 29.1227 72.9192 29.608C72.1165 30.0933 71.1645 30.336 70.0632 30.336C68.3458 30.336 67.0112 29.7947 66.0592 28.712C65.1072 27.6293 64.6312 26.0427 64.6312 23.952V16.112H68.2152V23.616C68.2152 24.8107 68.4578 25.7253 68.9432 26.36C69.4285 26.9947 70.1845 27.312 71.2112 27.312C72.2192 27.312 73.0405 26.9573 73.6752 26.248C74.3285 25.5387 74.6552 24.5493 74.6552 23.28V16.112H78.2392ZM80.5743 30L85.6143 23.056L80.5743 16.112H84.4103L87.9383 21.04L91.4383 16.112H95.3023L90.2343 23.056L95.3023 30H91.4383L87.9383 25.072L84.4103 30H80.5743ZM103.774 30C102.318 30 101.151 29.6453 100.274 28.936C99.3963 28.2267 98.9576 26.9667 98.9576 25.156V19.108H96.5776V16.112H98.9576L99.3776 12.388H102.542V16.112H106.294V19.108H102.542V25.184C102.542 25.856 102.682 26.3227 102.962 26.584C103.26 26.8267 103.764 26.948 104.474 26.948H106.21V30H103.774ZM108.195 33.108L115.195 8.244H118.695L111.667 33.108H108.195Z" fill="#003C3C"/>
<path d="M121.156 36.16V16.112H124.348L124.74 18.1C125.188 17.484 125.776 16.9427 126.504 16.476C127.251 16.0093 128.212 15.776 129.388 15.776C130.695 15.776 131.861 16.0933 132.888 16.728C133.915 17.3627 134.727 18.2307 135.324 19.332C135.921 20.4333 136.22 21.684 136.22 23.084C136.22 24.484 135.921 25.7347 135.324 26.836C134.727 27.9187 133.915 28.7773 132.888 29.412C131.861 30.028 130.695 30.336 129.388 30.336C128.343 30.336 127.428 30.14 126.644 29.748C125.86 29.356 125.225 28.8053 124.74 28.096V36.16H121.156ZM128.632 27.2C129.771 27.2 130.713 26.8173 131.46 26.052C132.207 25.2867 132.58 24.2973 132.58 23.084C132.58 21.8707 132.207 20.872 131.46 20.088C130.713 19.304 129.771 18.912 128.632 18.912C127.475 18.912 126.523 19.304 125.776 20.088C125.048 20.8533 124.684 21.8427 124.684 23.056C124.684 24.2693 125.048 25.268 125.776 26.052C126.523 26.8173 127.475 27.2 128.632 27.2ZM139.422 30V16.112H142.614L142.95 18.716C143.454 17.82 144.135 17.1107 144.994 16.588C145.871 16.0467 146.898 15.776 148.074 15.776V19.556H147.066C146.282 19.556 145.582 19.6773 144.966 19.92C144.35 20.1627 143.864 20.5827 143.51 21.18C143.174 21.7773 143.006 22.608 143.006 23.672V30H139.422ZM152.455 13.956C151.802 13.956 151.26 13.76 150.831 13.368C150.42 12.976 150.215 12.4813 150.215 11.884C150.215 11.2867 150.42 10.8013 150.831 10.428C151.26 10.036 151.802 9.84 152.455 9.84C153.108 9.84 153.64 10.036 154.051 10.428C154.48 10.8013 154.695 11.2867 154.695 11.884C154.695 12.4813 154.48 12.976 154.051 13.368C153.64 13.76 153.108 13.956 152.455 13.956ZM150.663 30V16.112H154.247V30H150.663ZM163.728 30.336C162.496 30.336 161.413 30.14 160.48 29.748C159.547 29.3373 158.8 28.7773 158.24 28.068C157.68 27.3587 157.344 26.5373 157.232 25.604H160.844C160.956 26.1453 161.255 26.612 161.74 27.004C162.244 27.3773 162.888 27.564 163.672 27.564C164.456 27.564 165.025 27.4053 165.38 27.088C165.753 26.7707 165.94 26.4067 165.94 25.996C165.94 25.3987 165.679 24.9973 165.156 24.792C164.633 24.568 163.905 24.3533 162.972 24.148C162.375 24.0173 161.768 23.8587 161.152 23.672C160.536 23.4853 159.967 23.252 159.444 22.972C158.94 22.6733 158.529 22.3 158.212 21.852C157.895 21.3853 157.736 20.816 157.736 20.144C157.736 18.912 158.221 17.876 159.192 17.036C160.181 16.196 161.563 15.776 163.336 15.776C164.979 15.776 166.285 16.1587 167.256 16.924C168.245 17.6893 168.833 18.744 169.02 20.088H165.632C165.427 19.0613 164.652 18.548 163.308 18.548C162.636 18.548 162.113 18.6787 161.74 18.94C161.385 19.2013 161.208 19.528 161.208 19.92C161.208 20.3307 161.479 20.6573 162.02 20.9C162.561 21.1427 163.28 21.3667 164.176 21.572C165.147 21.796 166.033 22.048 166.836 22.328C167.657 22.5893 168.311 22.9907 168.796 23.532C169.281 24.0547 169.524 24.8107 169.524 25.8C169.543 26.6587 169.319 27.4333 168.852 28.124C168.385 28.8147 167.713 29.356 166.836 29.748C165.959 30.14 164.923 30.336 163.728 30.336ZM172.699 30V16.112H175.863L176.171 17.988C176.619 17.316 177.207 16.784 177.935 16.392C178.682 15.9813 179.54 15.776 180.511 15.776C182.658 15.776 184.179 16.6067 185.075 18.268C185.579 17.5027 186.251 16.896 187.091 16.448C187.95 16 188.883 15.776 189.891 15.776C191.702 15.776 193.092 16.3173 194.063 17.4C195.034 18.4827 195.519 20.0693 195.519 22.16V30H191.935V22.496C191.935 21.3013 191.702 20.3867 191.235 19.752C190.787 19.1173 190.087 18.8 189.135 18.8C188.164 18.8 187.38 19.1547 186.783 19.864C186.204 20.5733 185.915 21.5627 185.915 22.832V30H182.331V22.496C182.331 21.3013 182.098 20.3867 181.631 19.752C181.164 19.1173 180.446 18.8 179.475 18.8C178.523 18.8 177.748 19.1547 177.151 19.864C176.572 20.5733 176.283 21.5627 176.283 22.832V30H172.699ZM200.854 13.956C200.2 13.956 199.659 13.76 199.23 13.368C198.819 12.976 198.614 12.4813 198.614 11.884C198.614 11.2867 198.819 10.8013 199.23 10.428C199.659 10.036 200.2 9.84 200.854 9.84C201.507 9.84 202.039 10.036 202.45 10.428C202.879 10.8013 203.094 11.2867 203.094 11.884C203.094 12.4813 202.879 12.976 202.45 13.368C202.039 13.76 201.507 13.956 200.854 13.956ZM199.062 30V16.112H202.646V30H199.062ZM213.19 30.336C211.772 30.336 210.521 30.028 209.438 29.412C208.356 28.796 207.497 27.9373 206.862 26.836C206.246 25.7347 205.938 24.4747 205.938 23.056C205.938 21.6373 206.246 20.3773 206.862 19.276C207.497 18.1747 208.356 17.316 209.438 16.7C210.521 16.084 211.772 15.776 213.19 15.776C214.964 15.776 216.457 16.2427 217.67 17.176C218.884 18.0907 219.658 19.36 219.994 20.984H216.214C216.028 20.312 215.654 19.7893 215.094 19.416C214.553 19.024 213.909 18.828 213.162 18.828C212.173 18.828 211.333 19.2013 210.642 19.948C209.952 20.6947 209.606 21.7307 209.606 23.056C209.606 24.3813 209.952 25.4173 210.642 26.164C211.333 26.9107 212.173 27.284 213.162 27.284C213.909 27.284 214.553 27.0973 215.094 26.724C215.654 26.3507 216.028 25.8187 216.214 25.128H219.994C219.658 26.696 218.884 27.956 217.67 28.908C216.457 29.86 214.964 30.336 213.19 30.336Z" fill="#5163BA"/>
<path fill-rule="evenodd" clip-rule="evenodd" d="M33.6373 20.6997L31.1237 18.1862C30.9245 17.9869 30.8125 17.7167 30.8125 17.4349V14.3599C30.8125 11.5182 30.5166 10.4877 29.961 9.4488C29.4054 8.40992 28.5901 7.59459 27.5512 7.03899C26.5123 6.48338 25.4818 6.1875 22.6401 6.1875H18.5755C18.4582 6.1875 18.363 6.09236 18.363 5.975C18.363 5.91864 18.3854 5.86459 18.4253 5.82474L20.9388 3.3112C21.1381 3.11194 21.4083 3 21.6901 3L23.1035 3C26.8925 3 28.2664 3.39451 29.6516 4.13531C31.0368 4.87612 32.1239 5.96322 32.8647 7.34841C33.6055 8.73359 34 10.1076 34 13.8965V20.5495C34 20.6668 33.9049 20.762 33.7875 20.762C33.7312 20.762 33.6771 20.7396 33.6373 20.6997Z" fill="#E55737"/>
<path fill-rule="evenodd" clip-rule="evenodd" d="M16.3003 36.6372L18.8138 34.1237C19.0131 33.9244 19.2833 33.8125 19.5651 33.8125H22.6401C25.4818 33.8125 26.5123 33.5166 27.5512 32.961C28.5901 32.4054 29.4054 31.5901 29.961 30.5512C30.5166 29.5123 30.8125 28.4818 30.8125 25.6401V21.5755C30.8125 21.4582 30.9076 21.363 31.025 21.363C31.0814 21.363 31.1354 21.3854 31.1753 21.4253L33.6888 23.9388C33.8881 24.1381 34 24.4083 34 24.6901V26.1035C34 29.8924 33.6055 31.2664 32.8647 32.6516C32.1239 34.0368 31.0368 35.1239 29.6516 35.8647C28.2664 36.6055 26.8925 37 23.1035 37H16.4505C16.3332 37 16.238 36.9049 16.238 36.7875C16.238 36.7311 16.2604 36.6771 16.3003 36.6372Z" fill="#F6C943"/>
<path fill-rule="evenodd" clip-rule="evenodd" d="M0.36276 19.3003L2.8763 21.8138C3.07556 22.0131 3.1875 22.2833 3.1875 22.5651V25.6401C3.1875 28.4818 3.48338 29.5123 4.03899 30.5512C4.59459 31.5901 5.40992 32.4054 6.4488 32.961C7.48769 33.5166 8.51817 33.8125 11.3599 33.8125H15.4245C15.5418 33.8125 15.637 33.9076 15.637 34.025C15.637 34.0814 15.6146 34.1354 15.5747 34.1753L13.0612 36.6888C12.8619 36.8881 12.5917 37 12.3099 37H10.8965C7.10756 37 5.73359 36.6055 4.34841 35.8647C2.96322 35.1239 1.87612 34.0368 1.13531 32.6516C0.394509 31.2664 0 29.8924 0 26.1035V19.4505C0 19.3332 0.0951395 19.238 0.2125 19.238C0.268859 19.238 0.322909 19.2604 0.36276 19.3003Z" fill="#7B8FEC"/>
<path fill-rule="evenodd" clip-rule="evenodd" d="M17.6997 3.36276L15.1862 5.8763C14.9869 6.07556 14.7167 6.1875 14.4349 6.1875H11.3599C8.51817 6.1875 7.48769 6.48338 6.4488 7.03899C5.40992 7.59459 4.59459 8.40992 4.03899 9.4488C3.48338 10.4877 3.1875 11.5182 3.1875 14.3599V18.4245C3.1875 18.5418 3.09236 18.637 2.975 18.637C2.91864 18.637 2.86459 18.6146 2.82474 18.5747L0.311199 16.0612C0.111942 15.8619 0 15.5917 0 15.3099L0 13.8965C0 10.1076 0.394509 8.73359 1.13531 7.34841C1.87612 5.96322 2.96322 4.87612 4.34841 4.13531C5.73359 3.39451 7.10756 3 10.8965 3L17.5495 3C17.6668 3 17.762 3.09514 17.762 3.2125C17.762 3.26886 17.7396 3.32291 17.6997 3.36276Z" fill="#D77EE9"/>
<path fill-rule="evenodd" clip-rule="evenodd" d="M28.3282 15.4066L24.9008 12.1309C24.6741 11.9043 24.409 11.7395 24.1265 11.6367C23.8928 11.5483 23.6396 11.5 23.375 11.5H13.2607C13.1433 11.5 13.0482 11.4049 13.0482 11.2875C13.0482 11.2311 13.0706 11.177 13.1105 11.1372L15.6264 8.62338C15.8256 8.42432 16.0957 8.3125 16.3774 8.3125H24.4375C26.7847 8.3125 28.6875 10.2153 28.6875 12.5625V15.253C28.6875 15.3703 28.5924 15.4655 28.475 15.4655C28.4203 15.4655 28.3677 15.4444 28.3282 15.4066Z" fill="#E55737"/>
<path fill-rule="evenodd" clip-rule="evenodd" d="M21.5934 31.3309L24.8691 27.9034C25.0957 27.6768 25.2605 27.4117 25.3633 27.1291C25.4517 26.8955 25.5 26.6422 25.5 26.3777V16.2633C25.5 16.146 25.5952 16.0508 25.7125 16.0508C25.7689 16.0508 25.823 16.0732 25.8628 16.1131L28.3766 18.629C28.5757 18.8283 28.6875 19.0984 28.6875 19.38V27.4402C28.6875 29.7874 26.7847 31.6902 24.4375 31.6902H21.747C21.6297 31.6902 21.5345 31.595 21.5345 31.4777C21.5345 31.423 21.5556 31.3704 21.5934 31.3309Z" fill="#F6C943"/>
<path fill-rule="evenodd" clip-rule="evenodd" d="M5.67182 24.5934L9.09925 27.8691C9.32589 28.0957 9.59099 28.2605 9.87355 28.3633C10.1072 28.4517 10.3604 28.5 10.625 28.5H20.7394C20.8567 28.5 20.9519 28.5951 20.9519 28.7125C20.9519 28.7689 20.9294 28.823 20.8896 28.8628L18.3736 31.3766C18.1744 31.5757 17.9043 31.6875 17.6227 31.6875H9.5625C7.21529 31.6875 5.3125 29.7847 5.3125 27.4375V24.747C5.3125 24.6297 5.40764 24.5345 5.525 24.5345C5.57969 24.5345 5.63228 24.5556 5.67182 24.5934Z" fill="#7B8FEC"/>
<path fill-rule="evenodd" clip-rule="evenodd" d="M12.4066 8.67182L9.13092 12.0992C8.90428 12.3259 8.73953 12.591 8.63669 12.8735C8.54835 13.1072 8.5 13.3604 8.5 13.625V23.7394C8.5 23.8567 8.40486 23.9519 8.2875 23.9519C8.23111 23.9519 8.17703 23.9294 8.13718 23.8896L5.62338 21.3736C5.42432 21.1744 5.3125 20.9043 5.3125 20.6227V12.5625C5.3125 10.2153 7.21529 8.3125 9.5625 8.3125H12.253C12.3703 8.3125 12.4655 8.40764 12.4655 8.525C12.4655 8.57969 12.4444 8.63228 12.4066 8.67182Z" fill="#D77EE9"/>
</g>
<defs>
<clipPath id="clip0">
<rect width="221" height="40" fill="white"/>
</clipPath>
</defs>
</svg>
