<svg width="1200" height="600" viewBox="0 0 1200 600" fill="none" xmlns="http://www.w3.org/2000/svg">
<rect width="1200" height="600" fill="white"/>
<path fill-rule="evenodd" clip-rule="evenodd" d="M568.944 177.436C573.563 169.438 585.11 169.438 589.728 177.436L684.056 340.789C688.675 348.787 682.902 358.786 673.664 358.786H485.009C475.771 358.786 469.998 348.787 474.617 340.789L568.944 177.436ZM579.337 188.973L489.805 344.019H668.868L579.337 188.973Z" fill="#C967CC"/>
<path fill-rule="evenodd" clip-rule="evenodd" d="M675.263 355.094L613.094 247.432L625.884 240.049L688.053 347.71L675.263 355.094Z" fill="#FEBF56"/>
<path fill-rule="evenodd" clip-rule="evenodd" d="M628.051 209.719C632.656 201.744 644.167 201.744 648.772 209.719L724.481 340.841C729.086 348.816 723.33 358.784 714.121 358.784H562.703C553.493 358.784 547.738 348.816 552.342 340.841L628.051 209.719ZM638.411 221.221L567.484 344.062H709.339L638.411 221.221Z" fill="#E46047"/>
<path fill-rule="evenodd" clip-rule="evenodd" d="M550.722 346.676C550.728 344.68 551.24 342.634 552.353 340.702L608.883 242.715C613.264 236.835 621.786 236.323 626.888 241.178L567.599 343.948H686.104C687.789 351.22 682.345 358.775 674.288 358.784C674.283 358.784 674.278 358.784 674.273 358.784H562.859C562.854 358.784 562.85 358.784 562.845 358.784C555.795 358.776 550.747 352.992 550.722 346.676Z" fill="#689FF1"/>
<path d="M412.51 439V412.216H418.612L419.152 416.752C419.98 415.168 421.168 413.908 422.716 412.972C424.3 412.036 426.154 411.568 428.278 411.568C431.59 411.568 434.164 412.612 436 414.7C437.836 416.788 438.754 419.848 438.754 423.88V439H431.842V424.528C431.842 422.224 431.374 420.46 430.438 419.236C429.502 418.012 428.044 417.4 426.064 417.4C424.12 417.4 422.518 418.084 421.258 419.452C420.034 420.82 419.422 422.728 419.422 425.176V439H412.51ZM471.176 412.216V439H465.074L464.534 434.464C463.706 436.048 462.5 437.308 460.916 438.244C459.368 439.18 457.532 439.648 455.408 439.648C452.096 439.648 449.522 438.604 447.686 436.516C445.85 434.428 444.932 431.368 444.932 427.336V412.216H451.844V426.688C451.844 428.992 452.312 430.756 453.248 431.98C454.184 433.204 455.642 433.816 457.622 433.816C459.566 433.816 461.15 433.132 462.374 431.764C463.634 430.396 464.264 428.488 464.264 426.04V412.216H471.176ZM475.679 439L485.399 425.608L475.679 412.216H483.077L489.881 421.72L496.631 412.216H504.083L494.309 425.608L504.083 439H496.631L489.881 429.496L483.077 439H475.679ZM520.421 439C517.613 439 515.363 438.316 513.671 436.948C511.979 435.58 511.133 433.15 511.133 429.658V417.994H506.543V412.216H511.133L511.943 405.034H518.045V412.216H525.281V417.994H518.045V429.712C518.045 431.008 518.315 431.908 518.855 432.412C519.431 432.88 520.403 433.114 521.771 433.114H525.119V439H520.421ZM535.049 408.058C533.789 408.058 532.745 407.68 531.917 406.924C531.125 406.168 530.729 405.214 530.729 404.062C530.729 402.91 531.125 401.974 531.917 401.254C532.745 400.498 533.789 400.12 535.049 400.12C536.309 400.12 537.335 400.498 538.127 401.254C538.955 401.974 539.369 402.91 539.369 404.062C539.369 405.214 538.955 406.168 538.127 406.924C537.335 407.68 536.309 408.058 535.049 408.058ZM526.139 450.88V444.994H528.245C529.433 444.994 530.279 444.76 530.783 444.292C531.287 443.824 531.539 443.032 531.539 441.916V412.216H538.451V441.916C538.451 445.156 537.623 447.46 535.967 448.828C534.347 450.196 532.133 450.88 529.325 450.88H526.139ZM556.734 439.648C554.358 439.648 552.27 439.27 550.47 438.514C548.67 437.722 547.23 436.642 546.15 435.274C545.07 433.906 544.422 432.322 544.206 430.522H551.172C551.388 431.566 551.964 432.466 552.9 433.222C553.872 433.942 555.114 434.302 556.626 434.302C558.138 434.302 559.236 433.996 559.92 433.384C560.64 432.772 561 432.07 561 431.278C561 430.126 560.496 429.352 559.488 428.956C558.48 428.524 557.076 428.11 555.276 427.714C554.124 427.462 552.954 427.156 551.766 426.796C550.578 426.436 549.48 425.986 548.472 425.446C547.5 424.87 546.708 424.15 546.096 423.286C545.484 422.386 545.178 421.288 545.178 419.992C545.178 417.616 546.114 415.618 547.986 413.998C549.894 412.378 552.558 411.568 555.978 411.568C559.146 411.568 561.666 412.306 563.538 413.782C565.446 415.258 566.58 417.292 566.94 419.884H560.406C560.01 417.904 558.516 416.914 555.924 416.914C554.628 416.914 553.62 417.166 552.9 417.67C552.216 418.174 551.874 418.804 551.874 419.56C551.874 420.352 552.396 420.982 553.44 421.45C554.484 421.918 555.87 422.35 557.598 422.746C559.47 423.178 561.18 423.664 562.728 424.204C564.312 424.708 565.572 425.482 566.508 426.526C567.444 427.534 567.912 428.992 567.912 430.9C567.948 432.556 567.516 434.05 566.616 435.382C565.716 436.714 564.42 437.758 562.728 438.514C561.036 439.27 559.038 439.648 556.734 439.648ZM571.767 444.994L585.267 397.042H592.017L578.463 444.994H571.767Z" fill="#4A5568"/>
<path d="M596.764 450.88V412.216H602.92L603.676 416.05C604.54 414.862 605.674 413.818 607.078 412.918C608.518 412.018 610.372 411.568 612.64 411.568C615.16 411.568 617.41 412.18 619.39 413.404C621.37 414.628 622.936 416.302 624.088 418.426C625.24 420.55 625.816 422.962 625.816 425.662C625.816 428.362 625.24 430.774 624.088 432.898C622.936 434.986 621.37 436.642 619.39 437.866C617.41 439.054 615.16 439.648 612.64 439.648C610.624 439.648 608.86 439.27 607.348 438.514C605.836 437.758 604.612 436.696 603.676 435.328V450.88H596.764ZM611.182 433.6C613.378 433.6 615.196 432.862 616.636 431.386C618.076 429.91 618.796 428.002 618.796 425.662C618.796 423.322 618.076 421.396 616.636 419.884C615.196 418.372 613.378 417.616 611.182 417.616C608.95 417.616 607.114 418.372 605.674 419.884C604.27 421.36 603.568 423.268 603.568 425.608C603.568 427.948 604.27 429.874 605.674 431.386C607.114 432.862 608.95 433.6 611.182 433.6ZM631.99 439V412.216H638.146L638.794 417.238C639.766 415.51 641.08 414.142 642.736 413.134C644.428 412.09 646.408 411.568 648.676 411.568V418.858H646.732C645.22 418.858 643.87 419.092 642.682 419.56C641.494 420.028 640.558 420.838 639.874 421.99C639.226 423.142 638.902 424.744 638.902 426.796V439H631.99ZM657.127 408.058C655.867 408.058 654.823 407.68 653.995 406.924C653.203 406.168 652.807 405.214 652.807 404.062C652.807 402.91 653.203 401.974 653.995 401.254C654.823 400.498 655.867 400.12 657.127 400.12C658.387 400.12 659.413 400.498 660.205 401.254C661.033 401.974 661.447 402.91 661.447 404.062C661.447 405.214 661.033 406.168 660.205 406.924C659.413 407.68 658.387 408.058 657.127 408.058ZM653.671 439V412.216H660.583V439H653.671ZM678.867 439.648C676.491 439.648 674.403 439.27 672.603 438.514C670.803 437.722 669.363 436.642 668.283 435.274C667.203 433.906 666.555 432.322 666.339 430.522H673.305C673.521 431.566 674.097 432.466 675.033 433.222C676.005 433.942 677.247 434.302 678.759 434.302C680.271 434.302 681.369 433.996 682.053 433.384C682.773 432.772 683.133 432.07 683.133 431.278C683.133 430.126 682.629 429.352 681.621 428.956C680.613 428.524 679.209 428.11 677.409 427.714C676.257 427.462 675.087 427.156 673.899 426.796C672.711 426.436 671.613 425.986 670.605 425.446C669.633 424.87 668.841 424.15 668.229 423.286C667.617 422.386 667.311 421.288 667.311 419.992C667.311 417.616 668.247 415.618 670.119 413.998C672.027 412.378 674.691 411.568 678.111 411.568C681.279 411.568 683.799 412.306 685.671 413.782C687.579 415.258 688.713 417.292 689.073 419.884H682.539C682.143 417.904 680.649 416.914 678.057 416.914C676.761 416.914 675.753 417.166 675.033 417.67C674.349 418.174 674.007 418.804 674.007 419.56C674.007 420.352 674.529 420.982 675.573 421.45C676.617 421.918 678.003 422.35 679.731 422.746C681.603 423.178 683.313 423.664 684.861 424.204C686.445 424.708 687.705 425.482 688.641 426.526C689.577 427.534 690.045 428.992 690.045 430.9C690.081 432.556 689.649 434.05 688.749 435.382C687.849 436.714 686.553 437.758 684.861 438.514C683.169 439.27 681.171 439.648 678.867 439.648ZM696.168 439V412.216H702.27L702.864 415.834C703.728 414.538 704.862 413.512 706.266 412.756C707.706 411.964 709.362 411.568 711.234 411.568C715.374 411.568 718.308 413.17 720.036 416.374C721.008 414.898 722.304 413.728 723.924 412.864C725.58 412 727.38 411.568 729.324 411.568C732.816 411.568 735.498 412.612 737.37 414.7C739.242 416.788 740.178 419.848 740.178 423.88V439H733.266V424.528C733.266 422.224 732.816 420.46 731.916 419.236C731.052 418.012 729.702 417.4 727.866 417.4C725.994 417.4 724.482 418.084 723.33 419.452C722.214 420.82 721.656 422.728 721.656 425.176V439H714.744V424.528C714.744 422.224 714.294 420.46 713.394 419.236C712.494 418.012 711.108 417.4 709.236 417.4C707.4 417.4 705.906 418.084 704.754 419.452C703.638 420.82 703.08 422.728 703.08 425.176V439H696.168ZM750.466 408.058C749.206 408.058 748.162 407.68 747.334 406.924C746.542 406.168 746.146 405.214 746.146 404.062C746.146 402.91 746.542 401.974 747.334 401.254C748.162 400.498 749.206 400.12 750.466 400.12C751.726 400.12 752.752 400.498 753.544 401.254C754.372 401.974 754.786 402.91 754.786 404.062C754.786 405.214 754.372 406.168 753.544 406.924C752.752 407.68 751.726 408.058 750.466 408.058ZM747.01 439V412.216H753.922V439H747.01ZM774.259 439.648C771.523 439.648 769.111 439.054 767.023 437.866C764.935 436.678 763.279 435.022 762.055 432.898C760.867 430.774 760.273 428.344 760.273 425.608C760.273 422.872 760.867 420.442 762.055 418.318C763.279 416.194 764.935 414.538 767.023 413.35C769.111 412.162 771.523 411.568 774.259 411.568C777.679 411.568 780.559 412.468 782.899 414.268C785.239 416.032 786.733 418.48 787.381 421.612H780.091C779.731 420.316 779.011 419.308 777.931 418.588C776.887 417.832 775.645 417.454 774.205 417.454C772.297 417.454 770.677 418.174 769.345 419.614C768.013 421.054 767.347 423.052 767.347 425.608C767.347 428.164 768.013 430.162 769.345 431.602C770.677 433.042 772.297 433.762 774.205 433.762C775.645 433.762 776.887 433.402 777.931 432.682C779.011 431.962 779.731 430.936 780.091 429.604H787.381C786.733 432.628 785.239 435.058 782.899 436.894C780.559 438.73 777.679 439.648 774.259 439.648Z" fill="#5163BA"/>
</svg>
