<svg width="1280" height="640" viewBox="0 0 1280 640" fill="none" xmlns="http://www.w3.org/2000/svg">
<rect width="1280" height="640" fill="white"/>
<path d="M431.9 303V273.24H438.68L439.28 278.28C440.2 276.52 441.52 275.12 443.24 274.08C445 273.04 447.06 272.52 449.42 272.52C453.1 272.52 455.96 273.68 458 276C460.04 278.32 461.06 281.72 461.06 286.2V303H453.38V286.92C453.38 284.36 452.86 282.4 451.82 281.04C450.78 279.68 449.16 279 446.96 279C444.8 279 443.02 279.76 441.62 281.28C440.26 282.8 439.58 284.92 439.58 287.64V303H431.9ZM497.084 273.24V303H490.304L489.704 297.96C488.784 299.72 487.444 301.12 485.684 302.16C483.964 303.2 481.924 303.72 479.564 303.72C475.884 303.72 473.024 302.56 470.984 300.24C468.944 297.92 467.924 294.52 467.924 290.04V273.24H475.604V289.32C475.604 291.88 476.124 293.84 477.164 295.2C478.204 296.56 479.824 297.24 482.024 297.24C484.184 297.24 485.944 296.48 487.304 294.96C488.704 293.44 489.404 291.32 489.404 288.6V273.24H497.084ZM502.088 303L512.888 288.12L502.088 273.24H510.308L517.868 283.8L525.368 273.24H533.648L522.788 288.12L533.648 303H525.368L517.868 292.44L510.308 303H502.088ZM551.801 303C548.681 303 546.181 302.24 544.301 300.72C542.421 299.2 541.481 296.5 541.481 292.62V279.66H536.381V273.24H541.481L542.381 265.26H549.161V273.24H557.201V279.66H549.161V292.68C549.161 294.12 549.461 295.12 550.061 295.68C550.701 296.2 551.781 296.46 553.301 296.46H557.021V303H551.801ZM568.055 268.62C566.655 268.62 565.495 268.2 564.575 267.36C563.695 266.52 563.255 265.46 563.255 264.18C563.255 262.9 563.695 261.86 564.575 261.06C565.495 260.22 566.655 259.8 568.055 259.8C569.455 259.8 570.595 260.22 571.475 261.06C572.395 261.86 572.855 262.9 572.855 264.18C572.855 265.46 572.395 266.52 571.475 267.36C570.595 268.2 569.455 268.62 568.055 268.62ZM558.155 316.2V309.66H560.495C561.815 309.66 562.755 309.4 563.315 308.88C563.875 308.36 564.155 307.48 564.155 306.24V273.24H571.835V306.24C571.835 309.84 570.915 312.4 569.075 313.92C567.275 315.44 564.815 316.2 561.695 316.2H558.155ZM592.149 303.72C589.509 303.72 587.189 303.3 585.189 302.46C583.189 301.58 581.589 300.38 580.389 298.86C579.189 297.34 578.469 295.58 578.229 293.58H585.969C586.209 294.74 586.849 295.74 587.889 296.58C588.969 297.38 590.349 297.78 592.029 297.78C593.709 297.78 594.929 297.44 595.689 296.76C596.489 296.08 596.889 295.3 596.889 294.42C596.889 293.14 596.329 292.28 595.209 291.84C594.089 291.36 592.529 290.9 590.529 290.46C589.249 290.18 587.949 289.84 586.629 289.44C585.309 289.04 584.089 288.54 582.969 287.94C581.889 287.3 581.009 286.5 580.329 285.54C579.649 284.54 579.309 283.32 579.309 281.88C579.309 279.24 580.349 277.02 582.429 275.22C584.549 273.42 587.509 272.52 591.309 272.52C594.829 272.52 597.629 273.34 599.709 274.98C601.829 276.62 603.089 278.88 603.489 281.76H596.229C595.789 279.56 594.129 278.46 591.249 278.46C589.809 278.46 588.689 278.74 587.889 279.3C587.129 279.86 586.749 280.56 586.749 281.4C586.749 282.28 587.329 282.98 588.489 283.5C589.649 284.02 591.189 284.5 593.109 284.94C595.189 285.42 597.089 285.96 598.809 286.56C600.569 287.12 601.969 287.98 603.009 289.14C604.049 290.26 604.569 291.88 604.569 294C604.609 295.84 604.129 297.5 603.129 298.98C602.129 300.46 600.689 301.62 598.809 302.46C596.929 303.3 594.709 303.72 592.149 303.72ZM608.853 309.66L623.853 256.38H631.353L616.293 309.66H608.853Z" fill="#4A5568"/>
<path d="M636.627 316.2V273.24H643.467L644.307 277.5C645.267 276.18 646.527 275.02 648.087 274.02C649.687 273.02 651.747 272.52 654.267 272.52C657.067 272.52 659.567 273.2 661.767 274.56C663.967 275.92 665.707 277.78 666.987 280.14C668.267 282.5 668.907 285.18 668.907 288.18C668.907 291.18 668.267 293.86 666.987 296.22C665.707 298.54 663.967 300.38 661.767 301.74C659.567 303.06 657.067 303.72 654.267 303.72C652.027 303.72 650.067 303.3 648.387 302.46C646.707 301.62 645.347 300.44 644.307 298.92V316.2H636.627ZM652.647 297C655.087 297 657.107 296.18 658.707 294.54C660.307 292.9 661.107 290.78 661.107 288.18C661.107 285.58 660.307 283.44 658.707 281.76C657.107 280.08 655.087 279.24 652.647 279.24C650.167 279.24 648.127 280.08 646.527 281.76C644.967 283.4 644.187 285.52 644.187 288.12C644.187 290.72 644.967 292.86 646.527 294.54C648.127 296.18 650.167 297 652.647 297ZM675.767 303V273.24H682.607L683.327 278.82C684.407 276.9 685.867 275.38 687.707 274.26C689.587 273.1 691.787 272.52 694.307 272.52V280.62H692.147C690.467 280.62 688.967 280.88 687.647 281.4C686.327 281.92 685.287 282.82 684.527 284.1C683.807 285.38 683.447 287.16 683.447 289.44V303H675.767ZM703.696 268.62C702.296 268.62 701.136 268.2 700.216 267.36C699.336 266.52 698.896 265.46 698.896 264.18C698.896 262.9 699.336 261.86 700.216 261.06C701.136 260.22 702.296 259.8 703.696 259.8C705.096 259.8 706.236 260.22 707.116 261.06C708.036 261.86 708.496 262.9 708.496 264.18C708.496 265.46 708.036 266.52 707.116 267.36C706.236 268.2 705.096 268.62 703.696 268.62ZM699.856 303V273.24H707.536V303H699.856ZM727.852 303.72C725.212 303.72 722.892 303.3 720.892 302.46C718.892 301.58 717.292 300.38 716.092 298.86C714.892 297.34 714.172 295.58 713.932 293.58H721.672C721.912 294.74 722.552 295.74 723.592 296.58C724.672 297.38 726.052 297.78 727.732 297.78C729.412 297.78 730.632 297.44 731.392 296.76C732.192 296.08 732.592 295.3 732.592 294.42C732.592 293.14 732.032 292.28 730.912 291.84C729.792 291.36 728.232 290.9 726.232 290.46C724.952 290.18 723.652 289.84 722.332 289.44C721.012 289.04 719.792 288.54 718.672 287.94C717.592 287.3 716.712 286.5 716.032 285.54C715.352 284.54 715.012 283.32 715.012 281.88C715.012 279.24 716.052 277.02 718.132 275.22C720.252 273.42 723.212 272.52 727.012 272.52C730.532 272.52 733.332 273.34 735.412 274.98C737.532 276.62 738.792 278.88 739.192 281.76H731.932C731.492 279.56 729.832 278.46 726.952 278.46C725.512 278.46 724.392 278.74 723.592 279.3C722.832 279.86 722.452 280.56 722.452 281.4C722.452 282.28 723.032 282.98 724.192 283.5C725.352 284.02 726.892 284.5 728.812 284.94C730.892 285.42 732.792 285.96 734.512 286.56C736.272 287.12 737.672 287.98 738.712 289.14C739.752 290.26 740.272 291.88 740.272 294C740.312 295.84 739.832 297.5 738.832 298.98C737.832 300.46 736.392 301.62 734.512 302.46C732.632 303.3 730.412 303.72 727.852 303.72ZM747.076 303V273.24H753.856L754.516 277.26C755.476 275.82 756.736 274.68 758.296 273.84C759.896 272.96 761.736 272.52 763.816 272.52C768.416 272.52 771.676 274.3 773.596 277.86C774.676 276.22 776.116 274.92 777.916 273.96C779.756 273 781.756 272.52 783.916 272.52C787.796 272.52 790.776 273.68 792.856 276C794.936 278.32 795.976 281.72 795.976 286.2V303H788.296V286.92C788.296 284.36 787.796 282.4 786.796 281.04C785.836 279.68 784.336 279 782.296 279C780.216 279 778.536 279.76 777.256 281.28C776.016 282.8 775.396 284.92 775.396 287.64V303H767.716V286.92C767.716 284.36 767.216 282.4 766.216 281.04C765.216 279.68 763.676 279 761.596 279C759.556 279 757.896 279.76 756.616 281.28C755.376 282.8 754.756 284.92 754.756 287.64V303H747.076ZM807.407 268.62C806.007 268.62 804.847 268.2 803.927 267.36C803.047 266.52 802.607 265.46 802.607 264.18C802.607 262.9 803.047 261.86 803.927 261.06C804.847 260.22 806.007 259.8 807.407 259.8C808.807 259.8 809.947 260.22 810.827 261.06C811.747 261.86 812.207 262.9 812.207 264.18C812.207 265.46 811.747 266.52 810.827 267.36C809.947 268.2 808.807 268.62 807.407 268.62ZM803.567 303V273.24H811.247V303H803.567ZM833.843 303.72C830.803 303.72 828.123 303.06 825.803 301.74C823.483 300.42 821.643 298.58 820.283 296.22C818.963 293.86 818.303 291.16 818.303 288.12C818.303 285.08 818.963 282.38 820.283 280.02C821.643 277.66 823.483 275.82 825.803 274.5C828.123 273.18 830.803 272.52 833.843 272.52C837.643 272.52 840.843 273.52 843.443 275.52C846.043 277.48 847.703 280.2 848.423 283.68H840.323C839.923 282.24 839.123 281.12 837.923 280.32C836.763 279.48 835.383 279.06 833.783 279.06C831.663 279.06 829.863 279.86 828.383 281.46C826.903 283.06 826.163 285.28 826.163 288.12C826.163 290.96 826.903 293.18 828.383 294.78C829.863 296.38 831.663 297.18 833.783 297.18C835.383 297.18 836.763 296.78 837.923 295.98C839.123 295.18 839.923 294.04 840.323 292.56H848.423C847.703 295.92 846.043 298.62 843.443 300.66C840.843 302.7 837.643 303.72 833.843 303.72Z" fill="#5163BA"/>
<path d="M362.96 383V355H380.28V357.76H366.32V367.52H379.08V370.24H366.32V380.24H380.28V383H362.96ZM391.938 383.48C390.285 383.48 388.911 383.2 387.818 382.64C386.725 382.08 385.911 381.333 385.378 380.4C384.845 379.467 384.578 378.453 384.578 377.36C384.578 375.333 385.351 373.773 386.898 372.68C388.445 371.587 390.551 371.04 393.218 371.04H398.578V370.8C398.578 369.067 398.125 367.76 397.218 366.88C396.311 365.973 395.098 365.52 393.578 365.52C392.271 365.52 391.138 365.853 390.178 366.52C389.245 367.16 388.658 368.107 388.418 369.36H384.978C385.111 367.92 385.591 366.707 386.418 365.72C387.271 364.733 388.325 363.987 389.578 363.48C390.831 362.947 392.165 362.68 393.578 362.68C396.351 362.68 398.431 363.427 399.818 364.92C401.231 366.387 401.938 368.347 401.938 370.8V383H398.938L398.738 379.44C398.178 380.56 397.351 381.52 396.258 382.32C395.191 383.093 393.751 383.48 391.938 383.48ZM392.458 380.64C393.738 380.64 394.831 380.307 395.738 379.64C396.671 378.973 397.378 378.107 397.858 377.04C398.338 375.973 398.578 374.853 398.578 373.68V373.64H393.498C391.525 373.64 390.125 373.987 389.298 374.68C388.498 375.347 388.098 376.187 388.098 377.2C388.098 378.24 388.471 379.08 389.218 379.72C389.991 380.333 391.071 380.64 392.458 380.64ZM414.579 383.48C412.205 383.48 410.232 382.88 408.659 381.68C407.085 380.48 406.165 378.853 405.899 376.8H409.339C409.552 377.84 410.099 378.747 410.979 379.52C411.885 380.267 413.099 380.64 414.619 380.64C416.032 380.64 417.072 380.347 417.739 379.76C418.405 379.147 418.739 378.427 418.739 377.6C418.739 376.4 418.299 375.6 417.419 375.2C416.565 374.8 415.352 374.44 413.779 374.12C412.712 373.907 411.645 373.6 410.579 373.2C409.512 372.8 408.619 372.24 407.899 371.52C407.179 370.773 406.819 369.8 406.819 368.6C406.819 366.867 407.459 365.453 408.739 364.36C410.045 363.24 411.805 362.68 414.019 362.68C416.125 362.68 417.845 363.213 419.179 364.28C420.539 365.32 421.325 366.813 421.539 368.76H418.219C418.085 367.747 417.645 366.96 416.899 366.4C416.179 365.813 415.205 365.52 413.979 365.52C412.779 365.52 411.845 365.773 411.179 366.28C410.539 366.787 410.219 367.453 410.219 368.28C410.219 369.08 410.632 369.707 411.459 370.16C412.312 370.613 413.459 371 414.899 371.32C416.125 371.587 417.285 371.92 418.379 372.32C419.499 372.693 420.405 373.267 421.099 374.04C421.819 374.787 422.179 375.88 422.179 377.32C422.205 379.107 421.525 380.587 420.139 381.76C418.779 382.907 416.925 383.48 414.579 383.48ZM429.019 358.76C428.352 358.76 427.792 358.547 427.339 358.12C426.912 357.667 426.699 357.107 426.699 356.44C426.699 355.8 426.912 355.267 427.339 354.84C427.792 354.413 428.352 354.2 429.019 354.2C429.659 354.2 430.205 354.413 430.659 354.84C431.112 355.267 431.339 355.8 431.339 356.44C431.339 357.107 431.112 357.667 430.659 358.12C430.205 358.547 429.659 358.76 429.019 358.76ZM427.339 383V363.16H430.699V383H427.339ZM436.549 383V354.2H439.909V383H436.549ZM447.576 391.8L452.496 381.08H451.336L443.456 363.16H447.096L453.656 378.6L460.616 363.16H464.096L451.096 391.8H447.576ZM487.349 383.48C485.455 383.48 483.749 383.053 482.229 382.2C480.735 381.32 479.549 380.107 478.669 378.56C477.815 376.987 477.389 375.16 477.389 373.08C477.389 371 477.815 369.187 478.669 367.64C479.549 366.067 480.735 364.853 482.229 364C483.749 363.12 485.455 362.68 487.349 362.68C489.695 362.68 491.669 363.293 493.269 364.52C494.895 365.747 495.922 367.387 496.349 369.44H492.909C492.642 368.213 491.989 367.267 490.949 366.6C489.909 365.907 488.695 365.56 487.309 365.56C486.189 365.56 485.135 365.84 484.149 366.4C483.162 366.96 482.362 367.8 481.749 368.92C481.135 370.04 480.829 371.427 480.829 373.08C480.829 374.733 481.135 376.12 481.749 377.24C482.362 378.36 483.162 379.213 484.149 379.8C485.135 380.36 486.189 380.64 487.309 380.64C488.695 380.64 489.909 380.307 490.949 379.64C491.989 378.947 492.642 377.973 492.909 376.72H496.349C495.949 378.72 494.935 380.347 493.309 381.6C491.682 382.853 489.695 383.48 487.349 383.48ZM510.081 383.48C508.215 383.48 506.535 383.053 505.041 382.2C503.548 381.347 502.361 380.147 501.481 378.6C500.628 377.027 500.201 375.187 500.201 373.08C500.201 370.973 500.641 369.147 501.521 367.6C502.401 366.027 503.588 364.813 505.081 363.96C506.601 363.107 508.295 362.68 510.161 362.68C512.028 362.68 513.708 363.107 515.201 363.96C516.695 364.813 517.868 366.027 518.721 367.6C519.601 369.147 520.041 370.973 520.041 373.08C520.041 375.187 519.601 377.027 518.721 378.6C517.841 380.147 516.641 381.347 515.121 382.2C513.628 383.053 511.948 383.48 510.081 383.48ZM510.081 380.6C511.228 380.6 512.295 380.32 513.281 379.76C514.268 379.2 515.068 378.36 515.681 377.24C516.295 376.12 516.601 374.733 516.601 373.08C516.601 371.427 516.295 370.04 515.681 368.92C515.095 367.8 514.308 366.96 513.321 366.4C512.335 365.84 511.281 365.56 510.161 365.56C509.015 365.56 507.948 365.84 506.961 366.4C505.975 366.96 505.175 367.8 504.561 368.92C503.948 370.04 503.641 371.427 503.641 373.08C503.641 374.733 503.948 376.12 504.561 377.24C505.175 378.36 505.961 379.2 506.921 379.76C507.908 380.32 508.961 380.6 510.081 380.6ZM524.713 383V363.16H527.753L527.953 366.72C528.593 365.467 529.513 364.48 530.713 363.76C531.913 363.04 533.273 362.68 534.793 362.68C537.14 362.68 539.006 363.4 540.393 364.84C541.806 366.253 542.513 368.44 542.513 371.4V383H539.153V371.76C539.153 367.627 537.446 365.56 534.033 365.56C532.326 365.56 530.9 366.187 529.753 367.44C528.633 368.667 528.073 370.427 528.073 372.72V383H524.713ZM547.604 383V363.16H550.644L550.844 366.72C551.484 365.467 552.404 364.48 553.604 363.76C554.804 363.04 556.164 362.68 557.684 362.68C560.03 362.68 561.897 363.4 563.284 364.84C564.697 366.253 565.404 368.44 565.404 371.4V383H562.044V371.76C562.044 367.627 560.337 365.56 556.924 365.56C555.217 365.56 553.79 366.187 552.644 367.44C551.524 368.667 550.964 370.427 550.964 372.72V383H547.604ZM579.414 383.48C577.521 383.48 575.841 383.053 574.374 382.2C572.908 381.32 571.748 380.107 570.894 378.56C570.068 377.013 569.654 375.187 569.654 373.08C569.654 371 570.068 369.187 570.894 367.64C571.721 366.067 572.868 364.853 574.334 364C575.828 363.12 577.548 362.68 579.494 362.68C581.414 362.68 583.068 363.12 584.454 364C585.868 364.853 586.948 365.987 587.694 367.4C588.441 368.813 588.814 370.333 588.814 371.96C588.814 372.253 588.801 372.547 588.774 372.84C588.774 373.133 588.774 373.467 588.774 373.84H572.974C573.054 375.36 573.401 376.627 574.014 377.64C574.654 378.627 575.441 379.373 576.374 379.88C577.334 380.387 578.348 380.64 579.414 380.64C580.801 380.64 581.961 380.32 582.894 379.68C583.828 379.04 584.508 378.173 584.934 377.08H588.254C587.721 378.92 586.694 380.453 585.174 381.68C583.681 382.88 581.761 383.48 579.414 383.48ZM579.414 365.52C577.814 365.52 576.388 366.013 575.134 367C573.908 367.96 573.201 369.373 573.014 371.24H585.494C585.414 369.453 584.801 368.053 583.654 367.04C582.508 366.027 581.094 365.52 579.414 365.52ZM602.388 383.48C600.494 383.48 598.788 383.053 597.268 382.2C595.774 381.32 594.588 380.107 593.708 378.56C592.854 376.987 592.428 375.16 592.428 373.08C592.428 371 592.854 369.187 593.708 367.64C594.588 366.067 595.774 364.853 597.268 364C598.788 363.12 600.494 362.68 602.388 362.68C604.734 362.68 606.708 363.293 608.308 364.52C609.934 365.747 610.961 367.387 611.388 369.44H607.948C607.681 368.213 607.028 367.267 605.988 366.6C604.948 365.907 603.734 365.56 602.348 365.56C601.228 365.56 600.174 365.84 599.188 366.4C598.201 366.96 597.401 367.8 596.788 368.92C596.174 370.04 595.868 371.427 595.868 373.08C595.868 374.733 596.174 376.12 596.788 377.24C597.401 378.36 598.201 379.213 599.188 379.8C600.174 380.36 601.228 380.64 602.348 380.64C603.734 380.64 604.948 380.307 605.988 379.64C607.028 378.947 607.681 377.973 607.948 376.72H611.388C610.988 378.72 609.974 380.347 608.348 381.6C606.721 382.853 604.734 383.48 602.388 383.48ZM623.373 383C621.56 383 620.133 382.56 619.093 381.68C618.053 380.8 617.533 379.213 617.533 376.92V366H614.093V363.16H617.533L617.973 358.4H620.893V363.16H626.733V366H620.893V376.92C620.893 378.173 621.147 379.027 621.653 379.48C622.16 379.907 623.053 380.12 624.333 380.12H626.413V383H623.373ZM641.788 383V355H650.988C653.175 355 654.975 355.36 656.388 356.08C657.801 356.8 658.841 357.773 659.508 359C660.201 360.227 660.548 361.613 660.548 363.16C660.548 364.68 660.215 366.053 659.548 367.28C658.881 368.507 657.841 369.493 656.428 370.24C655.015 370.96 653.201 371.32 650.988 371.32H645.148V383H641.788ZM645.148 368.48H650.908C653.148 368.48 654.735 368.013 655.668 367.08C656.628 366.12 657.108 364.813 657.108 363.16C657.108 361.48 656.628 360.173 655.668 359.24C654.735 358.28 653.148 357.8 650.908 357.8H645.148V368.48ZM664.752 383V363.16H667.792L668.072 366.96C668.686 365.653 669.619 364.613 670.872 363.84C672.126 363.067 673.672 362.68 675.512 362.68V366.2H674.592C673.419 366.2 672.339 366.413 671.352 366.84C670.366 367.24 669.579 367.933 668.992 368.92C668.406 369.907 668.112 371.267 668.112 373V383H664.752ZM681.323 358.76C680.657 358.76 680.097 358.547 679.643 358.12C679.217 357.667 679.003 357.107 679.003 356.44C679.003 355.8 679.217 355.267 679.643 354.84C680.097 354.413 680.657 354.2 681.323 354.2C681.963 354.2 682.51 354.413 682.963 354.84C683.417 355.267 683.643 355.8 683.643 356.44C683.643 357.107 683.417 357.667 682.963 358.12C682.51 358.547 681.963 358.76 681.323 358.76ZM679.643 383V363.16H683.003V383H679.643ZM696.454 383.48C694.08 383.48 692.107 382.88 690.534 381.68C688.96 380.48 688.04 378.853 687.774 376.8H691.214C691.427 377.84 691.974 378.747 692.854 379.52C693.76 380.267 694.974 380.64 696.494 380.64C697.907 380.64 698.947 380.347 699.614 379.76C700.28 379.147 700.614 378.427 700.614 377.6C700.614 376.4 700.174 375.6 699.294 375.2C698.44 374.8 697.227 374.44 695.654 374.12C694.587 373.907 693.52 373.6 692.454 373.2C691.387 372.8 690.494 372.24 689.774 371.52C689.054 370.773 688.694 369.8 688.694 368.6C688.694 366.867 689.334 365.453 690.614 364.36C691.92 363.24 693.68 362.68 695.894 362.68C698 362.68 699.72 363.213 701.054 364.28C702.414 365.32 703.2 366.813 703.414 368.76H700.094C699.96 367.747 699.52 366.96 698.774 366.4C698.054 365.813 697.08 365.52 695.854 365.52C694.654 365.52 693.72 365.773 693.054 366.28C692.414 366.787 692.094 367.453 692.094 368.28C692.094 369.08 692.507 369.707 693.334 370.16C694.187 370.613 695.334 371 696.774 371.32C698 371.587 699.16 371.92 700.254 372.32C701.374 372.693 702.28 373.267 702.974 374.04C703.694 374.787 704.054 375.88 704.054 377.32C704.08 379.107 703.4 380.587 702.014 381.76C700.654 382.907 698.8 383.48 696.454 383.48ZM708.854 383V363.16H711.894L712.134 366.04C712.774 364.973 713.627 364.147 714.694 363.56C715.76 362.973 716.96 362.68 718.294 362.68C719.867 362.68 721.214 363 722.334 363.64C723.48 364.28 724.36 365.253 724.974 366.56C725.667 365.36 726.614 364.413 727.814 363.72C729.04 363.027 730.36 362.68 731.774 362.68C734.147 362.68 736.04 363.4 737.454 364.84C738.867 366.253 739.574 368.44 739.574 371.4V383H736.254V371.76C736.254 369.707 735.84 368.16 735.014 367.12C734.187 366.08 733 365.56 731.454 365.56C729.854 365.56 728.52 366.187 727.454 367.44C726.414 368.667 725.894 370.427 725.894 372.72V383H722.534V371.76C722.534 369.707 722.12 368.16 721.294 367.12C720.467 366.08 719.28 365.56 717.734 365.56C716.16 365.56 714.84 366.187 713.774 367.44C712.734 368.667 712.214 370.427 712.214 372.72V383H708.854ZM746.675 358.76C746.008 358.76 745.448 358.547 744.995 358.12C744.568 357.667 744.355 357.107 744.355 356.44C744.355 355.8 744.568 355.267 744.995 354.84C745.448 354.413 746.008 354.2 746.675 354.2C747.315 354.2 747.862 354.413 748.315 354.84C748.768 355.267 748.995 355.8 748.995 356.44C748.995 357.107 748.768 357.667 748.315 358.12C747.862 358.547 747.315 358.76 746.675 358.76ZM744.995 383V363.16H748.355V383H744.995ZM763.325 383.48C761.432 383.48 759.725 383.053 758.205 382.2C756.712 381.32 755.525 380.107 754.645 378.56C753.792 376.987 753.365 375.16 753.365 373.08C753.365 371 753.792 369.187 754.645 367.64C755.525 366.067 756.712 364.853 758.205 364C759.725 363.12 761.432 362.68 763.325 362.68C765.672 362.68 767.645 363.293 769.245 364.52C770.872 365.747 771.899 367.387 772.325 369.44H768.885C768.619 368.213 767.965 367.267 766.925 366.6C765.885 365.907 764.672 365.56 763.285 365.56C762.165 365.56 761.112 365.84 760.125 366.4C759.139 366.96 758.339 367.8 757.725 368.92C757.112 370.04 756.805 371.427 756.805 373.08C756.805 374.733 757.112 376.12 757.725 377.24C758.339 378.36 759.139 379.213 760.125 379.8C761.112 380.36 762.165 380.64 763.285 380.64C764.672 380.64 765.885 380.307 766.925 379.64C767.965 378.947 768.619 377.973 768.885 376.72H772.325C771.925 378.72 770.912 380.347 769.285 381.6C767.659 382.853 765.672 383.48 763.325 383.48ZM795.444 383C793.63 383 792.204 382.56 791.164 381.68C790.124 380.8 789.604 379.213 789.604 376.92V366H786.164V363.16H789.604L790.044 358.4H792.964V363.16H798.804V366H792.964V376.92C792.964 378.173 793.217 379.027 793.724 379.48C794.23 379.907 795.124 380.12 796.404 380.12H798.484V383H795.444ZM811.566 383.48C809.699 383.48 808.019 383.053 806.526 382.2C805.032 381.347 803.846 380.147 802.966 378.6C802.112 377.027 801.686 375.187 801.686 373.08C801.686 370.973 802.126 369.147 803.006 367.6C803.886 366.027 805.072 364.813 806.566 363.96C808.086 363.107 809.779 362.68 811.646 362.68C813.512 362.68 815.192 363.107 816.686 363.96C818.179 364.813 819.352 366.027 820.206 367.6C821.086 369.147 821.526 370.973 821.526 373.08C821.526 375.187 821.086 377.027 820.206 378.6C819.326 380.147 818.126 381.347 816.606 382.2C815.112 383.053 813.432 383.48 811.566 383.48ZM811.566 380.6C812.712 380.6 813.779 380.32 814.766 379.76C815.752 379.2 816.552 378.36 817.166 377.24C817.779 376.12 818.086 374.733 818.086 373.08C818.086 371.427 817.779 370.04 817.166 368.92C816.579 367.8 815.792 366.96 814.806 366.4C813.819 365.84 812.766 365.56 811.646 365.56C810.499 365.56 809.432 365.84 808.446 366.4C807.459 366.96 806.659 367.8 806.046 368.92C805.432 370.04 805.126 371.427 805.126 373.08C805.126 374.733 805.432 376.12 806.046 377.24C806.659 378.36 807.446 379.2 808.406 379.76C809.392 380.32 810.446 380.6 811.566 380.6ZM836.983 383V355H840.343L855.263 377.44V355H858.623V383H855.263L840.343 360.56V383H836.983ZM881.722 363.16V383H878.682L878.482 379.44C877.842 380.693 876.922 381.68 875.722 382.4C874.522 383.12 873.162 383.48 871.642 383.48C869.295 383.48 867.415 382.773 866.002 381.36C864.615 379.92 863.922 377.72 863.922 374.76V363.16H867.282V374.4C867.282 378.533 868.988 380.6 872.402 380.6C874.108 380.6 875.522 379.987 876.642 378.76C877.788 377.507 878.362 375.733 878.362 373.44V363.16H881.722ZM885.252 383L892.132 373.08L885.252 363.16H888.892L894.452 371.36L900.052 363.16H903.652L896.772 373.08L903.652 383H900.052L894.452 374.8L888.892 383H885.252ZM915.014 383C913.201 383 911.774 382.56 910.734 381.68C909.694 380.8 909.174 379.213 909.174 376.92V366H905.734V363.16H909.174L909.614 358.4H912.534V363.16H918.374V366H912.534V376.92C912.534 378.173 912.787 379.027 913.294 379.48C913.801 379.907 914.694 380.12 915.974 380.12H918.054V383H915.014Z" fill="#4A5568"/>
<path d="M1197.3 548.699L1194.7 553.233L1185.81 537.723L1158.5 585.329H1176.99C1176.99 587.833 1179.01 589.863 1181.5 589.863H1158.5C1156.89 589.863 1155.41 588.998 1154.6 587.596C1153.8 586.193 1153.8 584.465 1154.6 583.062L1181.91 535.456C1182.71 534.053 1184.2 533.189 1185.81 533.189C1187.42 533.189 1188.91 534.053 1189.71 535.456L1197.3 548.699Z" fill="#00C58E"/>
<path d="M1217.02 583.062L1199.91 553.233L1197.3 548.699L1194.7 553.233L1177.6 583.062C1176.79 584.465 1176.79 586.193 1177.6 587.596C1178.4 588.998 1179.89 589.863 1181.5 589.863H1213.11C1214.72 589.863 1216.21 588.999 1217.01 587.597C1217.82 586.194 1217.82 584.465 1217.01 583.062H1217.02ZM1181.5 585.329L1197.3 557.767L1213.11 585.329H1181.5L1181.5 585.329Z" fill="#2F495E"/>
<path d="M1229.25 587.596C1228.45 588.999 1226.96 589.863 1225.35 589.863H1213.11C1215.6 589.863 1217.61 587.833 1217.61 585.329H1225.34L1203.42 547.106L1199.91 553.233L1197.3 548.699L1199.52 544.839C1200.32 543.436 1201.81 542.572 1203.42 542.572C1205.03 542.572 1206.52 543.436 1207.32 544.839L1229.25 583.062C1230.05 584.465 1230.05 586.193 1229.25 587.596Z" fill="#108775"/>
<path d="M93.305 65.6987L90.7041 70.2327L81.8093 54.7229L54.5037 102.329H72.9914C72.9914 104.833 75.0078 106.863 77.4951 106.863H54.5037C52.8948 106.863 51.4083 105.998 50.604 104.596C49.7997 103.193 49.7998 101.465 50.6042 100.062L77.9098 52.4559C78.7143 51.053 80.2011 50.1888 81.8102 50.1888C83.4193 50.1888 84.9061 51.053 85.7106 52.4559L93.305 65.6987Z" fill="#00C58E"/>
<path d="M113.016 100.062L95.9058 70.2327L93.305 65.6988L90.7041 70.2327L73.5956 100.062C72.7912 101.465 72.7911 103.193 73.5954 104.596C74.3997 105.998 75.8862 106.863 77.4951 106.863H109.111C110.72 106.863 112.207 105.999 113.012 104.597C113.817 103.194 113.817 101.465 113.012 100.062H113.016ZM77.4951 102.329L93.305 74.7666L109.111 102.329H77.4951L77.4951 102.329Z" fill="#2F495E"/>
<path d="M125.249 104.596C124.445 105.999 122.959 106.863 121.35 106.863H109.111C111.598 106.863 113.615 104.833 113.615 102.329H121.341L99.4187 64.1062L95.9058 70.2327L93.305 65.6987L95.5193 61.8392C96.3238 60.4364 97.8106 59.5721 99.4197 59.5721C101.029 59.5721 102.516 60.4364 103.32 61.8392L125.249 100.062C126.054 101.465 126.054 103.193 125.249 104.596Z" fill="#108775"/>
<path fill-rule="evenodd" clip-rule="evenodd" d="M1220.38 79.1937L1216.09 74.9059C1215.75 74.566 1215.56 74.1049 1215.56 73.6242V68.3786C1215.56 63.531 1215.06 61.7731 1214.11 60.0009C1213.16 58.2287 1211.77 56.8378 1210 55.89C1208.23 54.9422 1206.47 54.4375 1201.62 54.4375H1194.69C1194.49 54.4375 1194.33 54.2752 1194.33 54.075C1194.33 53.9789 1194.36 53.8867 1194.43 53.8187L1198.72 49.5309C1199.06 49.191 1199.52 49 1200 49H1202.41C1208.88 49 1211.22 49.673 1213.58 50.9367C1215.95 52.2004 1217.8 54.0549 1219.06 56.4179C1220.33 58.7808 1221 61.1247 1221 67.5882V78.9373C1221 79.1376 1220.84 79.2998 1220.64 79.2998C1220.54 79.2998 1220.45 79.2617 1220.38 79.1937Z" fill="#E55737"/>
<path fill-rule="evenodd" clip-rule="evenodd" d="M1190.81 106.381L1195.09 102.093C1195.43 101.753 1195.9 101.563 1196.38 101.563H1201.62C1206.47 101.563 1208.23 101.058 1210 100.11C1211.77 99.1622 1213.16 97.7713 1214.11 95.9991C1215.06 94.2269 1215.56 92.469 1215.56 87.6214V80.6877C1215.56 80.4875 1215.72 80.3252 1215.92 80.3252C1216.02 80.3252 1216.11 80.3634 1216.18 80.4313L1220.47 84.7191C1220.81 85.0591 1221 85.5201 1221 86.0008V88.4118C1221 94.8754 1220.33 97.2192 1219.06 99.5821C1217.8 101.945 1215.95 103.8 1213.58 105.063C1211.22 106.327 1208.88 107 1202.41 107H1191.06C1190.86 107 1190.7 106.838 1190.7 106.638C1190.7 106.541 1190.74 106.449 1190.81 106.381Z" fill="#F6C943"/>
<path fill-rule="evenodd" clip-rule="evenodd" d="M1163.62 76.8063L1167.91 81.0941C1168.25 81.4341 1168.44 81.8951 1168.44 82.3758V87.6214C1168.44 92.469 1168.94 94.2269 1169.89 95.9991C1170.84 97.7713 1172.23 99.1622 1174 100.11C1175.77 101.058 1177.53 101.563 1182.38 101.563H1189.31C1189.51 101.563 1189.67 101.725 1189.67 101.925C1189.67 102.021 1189.64 102.113 1189.57 102.181L1185.28 106.469C1184.94 106.809 1184.48 107 1184 107H1181.59C1175.12 107 1172.78 106.327 1170.42 105.063C1168.05 103.8 1166.2 101.945 1164.94 99.5821C1163.67 97.2192 1163 94.8754 1163 88.4118V77.0627C1163 76.8625 1163.16 76.7002 1163.36 76.7002C1163.46 76.7002 1163.55 76.7384 1163.62 76.8063Z" fill="#7B8FEC"/>
<path fill-rule="evenodd" clip-rule="evenodd" d="M1193.19 49.6188L1188.91 53.9066C1188.57 54.2465 1188.1 54.4375 1187.62 54.4375H1182.38C1177.53 54.4375 1175.77 54.9422 1174 55.89C1172.23 56.8378 1170.84 58.2287 1169.89 60.0009C1168.94 61.7731 1168.44 63.531 1168.44 68.3786V75.3123C1168.44 75.5126 1168.28 75.6748 1168.07 75.6748C1167.98 75.6748 1167.89 75.6367 1167.82 75.5687L1163.53 71.2809C1163.19 70.941 1163 70.4799 1163 69.9992V67.5882C1163 61.1247 1163.67 58.7808 1164.94 56.4179C1166.2 54.0549 1168.05 52.2004 1170.42 50.9367C1172.78 49.673 1175.12 49 1181.59 49L1192.94 49C1193.14 49 1193.3 49.1623 1193.3 49.3625C1193.3 49.4586 1193.26 49.5508 1193.19 49.6188Z" fill="#D77EE9"/>
<path fill-rule="evenodd" clip-rule="evenodd" d="M1211.32 70.1642L1205.48 64.5763C1205.09 64.1897 1204.64 63.9086 1204.16 63.7332C1203.76 63.5825 1203.33 63.5 1202.88 63.5H1185.62C1185.42 63.5 1185.26 63.3377 1185.26 63.1375C1185.26 63.0413 1185.3 62.9491 1185.36 62.8811L1189.66 58.5928C1190 58.2532 1190.46 58.0625 1190.94 58.0625H1204.69C1208.69 58.0625 1211.94 61.3084 1211.94 65.3125V69.9021C1211.94 70.1023 1211.78 70.2646 1211.58 70.2646C1211.48 70.2646 1211.39 70.2286 1211.32 70.1642Z" fill="#E55737"/>
<path fill-rule="evenodd" clip-rule="evenodd" d="M1199.84 97.3291L1205.42 91.4823C1205.81 91.0957 1206.09 90.6435 1206.27 90.1615C1206.42 89.7629 1206.5 89.3309 1206.5 88.8796V71.6257C1206.5 71.4255 1206.66 71.2632 1206.86 71.2632C1206.96 71.2632 1207.05 71.3014 1207.12 71.3694L1211.41 75.6613C1211.75 76.0012 1211.94 76.4619 1211.94 76.9424V90.6921C1211.94 94.6961 1208.69 97.9421 1204.69 97.9421H1200.1C1199.9 97.9421 1199.74 97.7798 1199.74 97.5796C1199.74 97.4863 1199.77 97.3966 1199.84 97.3291Z" fill="#F6C943"/>
<path fill-rule="evenodd" clip-rule="evenodd" d="M1172.68 85.8358L1178.52 91.4237C1178.91 91.8104 1179.36 92.0914 1179.84 92.2668C1180.24 92.4175 1180.67 92.5 1181.12 92.5H1198.38C1198.58 92.5 1198.74 92.6623 1198.74 92.8625C1198.74 92.9587 1198.7 93.0509 1198.64 93.1189L1194.34 97.4072C1194 97.7468 1193.54 97.9375 1193.06 97.9375H1179.31C1175.31 97.9375 1172.06 94.6916 1172.06 90.6875V86.0979C1172.06 85.8977 1172.22 85.7354 1172.42 85.7354C1172.52 85.7354 1172.61 85.7714 1172.68 85.8358Z" fill="#7B8FEC"/>
<path fill-rule="evenodd" clip-rule="evenodd" d="M1184.16 58.6755L1178.58 64.5222C1178.19 64.9089 1177.91 65.3611 1177.73 65.8431C1177.58 66.2416 1177.5 66.6737 1177.5 67.125V84.3789C1177.5 84.5791 1177.34 84.7414 1177.14 84.7414C1177.04 84.7414 1176.95 84.7032 1176.88 84.6351L1172.59 80.3433C1172.25 80.0034 1172.06 79.5426 1172.06 79.0622V65.3125C1172.06 61.3084 1175.31 58.0625 1179.31 58.0625H1183.9C1184.1 58.0625 1184.26 58.2248 1184.26 58.425C1184.26 58.5183 1184.23 58.608 1184.16 58.6755Z" fill="#D77EE9"/>
<path fill-rule="evenodd" clip-rule="evenodd" d="M116.381 568.194L112.093 563.906C111.753 563.566 111.563 563.105 111.563 562.624V557.379C111.563 552.531 111.058 550.773 110.11 549.001C109.162 547.229 107.771 545.838 105.999 544.89C104.227 543.942 102.469 543.438 97.6214 543.438H90.6877C90.4875 543.438 90.3252 543.275 90.3252 543.075C90.3252 542.979 90.3634 542.887 90.4313 542.819L94.7191 538.531C95.0591 538.191 95.5201 538 96.0008 538H98.4118C104.875 538 107.219 538.673 109.582 539.937C111.945 541.2 113.8 543.055 115.063 545.418C116.327 547.781 117 550.125 117 556.588V567.937C117 568.138 116.838 568.3 116.638 568.3C116.541 568.3 116.449 568.262 116.381 568.194Z" fill="#E55737"/>
<path fill-rule="evenodd" clip-rule="evenodd" d="M86.8063 595.381L91.0941 591.093C91.4341 590.753 91.8951 590.563 92.3758 590.563H97.6214C102.469 590.563 104.227 590.058 105.999 589.11C107.771 588.162 109.162 586.771 110.11 584.999C111.058 583.227 111.563 581.469 111.563 576.621V569.688C111.563 569.487 111.725 569.325 111.925 569.325C112.021 569.325 112.113 569.363 112.181 569.431L116.469 573.719C116.809 574.059 117 574.52 117 575.001V577.412C117 583.875 116.327 586.219 115.063 588.582C113.8 590.945 111.945 592.8 109.582 594.063C107.219 595.327 104.875 596 98.4118 596H87.0627C86.8625 596 86.7002 595.838 86.7002 595.638C86.7002 595.541 86.7384 595.449 86.8063 595.381Z" fill="#F6C943"/>
<path fill-rule="evenodd" clip-rule="evenodd" d="M59.6188 565.806L63.9066 570.094C64.2465 570.434 64.4375 570.895 64.4375 571.376V576.621C64.4375 581.469 64.9422 583.227 65.89 584.999C66.8378 586.771 68.2287 588.162 70.0009 589.11C71.7731 590.058 73.531 590.563 78.3786 590.563H85.3123C85.5126 590.563 85.6748 590.725 85.6748 590.925C85.6748 591.021 85.6367 591.113 85.5687 591.181L81.2809 595.469C80.941 595.809 80.4799 596 79.9992 596H77.5882C71.1247 596 68.7808 595.327 66.4179 594.063C64.0549 592.8 62.2004 590.945 60.9367 588.582C59.673 586.219 59 583.875 59 577.412V566.063C59 565.862 59.1623 565.7 59.3625 565.7C59.4586 565.7 59.5508 565.738 59.6188 565.806Z" fill="#7B8FEC"/>
<path fill-rule="evenodd" clip-rule="evenodd" d="M89.1937 538.619L84.9059 542.907C84.566 543.247 84.1049 543.438 83.6242 543.438H78.3786C73.531 543.438 71.7731 543.942 70.0009 544.89C68.2287 545.838 66.8378 547.229 65.89 549.001C64.9422 550.773 64.4375 552.531 64.4375 557.379V564.312C64.4375 564.513 64.2752 564.675 64.075 564.675C63.9789 564.675 63.8867 564.637 63.8187 564.569L59.5309 560.281C59.191 559.941 59 559.48 59 558.999V556.588C59 550.125 59.673 547.781 60.9367 545.418C62.2004 543.055 64.0549 541.2 66.4179 539.937C68.7808 538.673 71.1247 538 77.5882 538H88.9373C89.1376 538 89.2998 538.162 89.2998 538.363C89.2998 538.459 89.2617 538.551 89.1937 538.619Z" fill="#D77EE9"/>
<path fill-rule="evenodd" clip-rule="evenodd" d="M107.325 559.164L101.478 553.576C101.091 553.19 100.639 552.909 100.157 552.733C99.7584 552.582 99.3263 552.5 98.875 552.5H81.6211C81.4209 552.5 81.2586 552.338 81.2586 552.137C81.2586 552.041 81.2968 551.949 81.3649 551.881L85.6567 547.593C85.9966 547.253 86.4574 547.062 86.9378 547.062H100.688C104.692 547.062 107.938 550.308 107.938 554.312V558.902C107.938 559.102 107.775 559.265 107.575 559.265C107.482 559.265 107.392 559.229 107.325 559.164Z" fill="#E55737"/>
<path fill-rule="evenodd" clip-rule="evenodd" d="M95.8358 586.329L101.424 580.482C101.81 580.096 102.091 579.643 102.267 579.161C102.418 578.763 102.5 578.331 102.5 577.88V560.626C102.5 560.425 102.662 560.263 102.863 560.263C102.959 560.263 103.051 560.301 103.119 560.369L107.407 564.661C107.747 565.001 107.938 565.462 107.938 565.942V579.692C107.938 583.696 104.692 586.942 100.688 586.942H96.0979C95.8977 586.942 95.7354 586.78 95.7354 586.58C95.7354 586.486 95.7714 586.397 95.8358 586.329Z" fill="#F6C943"/>
<path fill-rule="evenodd" clip-rule="evenodd" d="M68.6755 574.836L74.5222 580.424C74.9089 580.81 75.3611 581.091 75.8431 581.267C76.2416 581.418 76.6737 581.5 77.125 581.5H94.3789C94.5791 581.5 94.7414 581.662 94.7414 581.863C94.7414 581.959 94.7032 582.051 94.6351 582.119L90.3433 586.407C90.0034 586.747 89.5426 586.938 89.0622 586.938H75.3125C71.3084 586.938 68.0625 583.692 68.0625 579.688V575.098C68.0625 574.898 68.2248 574.735 68.425 574.735C68.5183 574.735 68.608 574.771 68.6755 574.836Z" fill="#7B8FEC"/>
<path fill-rule="evenodd" clip-rule="evenodd" d="M80.1642 547.675L74.5763 553.522C74.1897 553.909 73.9086 554.361 73.7332 554.843C73.5825 555.242 73.5 555.674 73.5 556.125V573.379C73.5 573.579 73.3377 573.741 73.1375 573.741C73.0413 573.741 72.9491 573.703 72.8811 573.635L68.5928 569.343C68.2532 569.003 68.0625 568.543 68.0625 568.062V554.312C68.0625 550.308 71.3084 547.062 75.3125 547.062H79.9021C80.1023 547.062 80.2646 547.225 80.2646 547.425C80.2646 547.518 80.2286 547.608 80.1642 547.675Z" fill="#D77EE9"/>
</svg>
