<svg width="563" height="441" viewBox="0 0 563 441" fill="none" xmlns="http://www.w3.org/2000/svg">
<path fill-rule="evenodd" clip-rule="evenodd" d="M225.827 60.9317C234.243 46.356 255.281 46.3561 263.696 60.9318L435.561 358.612C443.977 373.187 433.458 391.407 416.627 391.407H72.8961C56.0655 391.407 45.5465 373.187 53.9618 358.612L225.827 60.9317ZM244.762 81.9543L81.635 364.498H407.888L244.762 81.9543Z" fill="#C967CC"/>
<path fill-rule="evenodd" clip-rule="evenodd" d="M419.54 384.68L306.268 188.487L329.572 175.033L442.844 371.225L419.54 384.68Z" fill="#FEBF56"/>
<path fill-rule="evenodd" clip-rule="evenodd" d="M333.521 119.763C341.91 105.23 362.884 105.23 371.274 119.763L509.216 358.709C517.606 373.241 507.119 391.407 490.34 391.407H214.455C197.676 391.407 187.189 373.241 195.578 358.709L333.521 119.763ZM352.397 140.723L223.167 364.578H481.628L352.397 140.723Z" fill="#E46047"/>
<path fill-rule="evenodd" clip-rule="evenodd" d="M192.626 369.343C192.636 365.706 193.569 361.976 195.598 358.457L298.596 179.893C306.578 169.178 322.105 168.245 331.401 177.093L223.376 364.371H439.293C442.362 377.623 432.444 391.39 417.764 391.407C417.755 391.407 417.746 391.407 417.737 391.407H214.74C214.731 391.407 214.722 391.407 214.713 391.407C201.869 391.392 192.671 380.853 192.626 369.343Z" fill="#689FF1"/>
</svg>
